<svg id="svg" fill="#000000" stroke="#000000" width="200px" height="200px" version="1.1" viewBox="144 144 512 512" xmlns="http://www.w3.org/2000/svg">
    <g id="IconSvg_bgCarrier" stroke-width="0"></g>
    <g id="IconSvg_tracerCarrier" stroke-linecap="round" stroke-linejoin="round" stroke="#CCCCCC"></g>
     <g id="IconSvg_iconCarrier">
      <defs xmlns="http://www.w3.org/2000/svg">
  <clipPath id="a">
   <path d="m148.09 148.09h503.81v503.81h-503.81z"></path>
  </clipPath>
 </defs>
<g xmlns="http://www.w3.org/2000/svg" clip-path="url(#a)">
  <path d="m400 651.9c-66.812 0-130.88-26.539-178.12-73.781-47.242-47.242-73.781-111.31-73.781-178.12 0-66.812 26.539-130.88 73.781-178.12s111.31-73.781 178.12-73.781c66.809 0 130.88 26.539 178.12 73.781 47.242 47.242 73.781 111.31 73.781 178.12-0.074219 66.785-26.641 130.81-73.863 178.04-47.227 47.223-111.25 73.789-178.04 73.863zm0-465.05c-56.531 0-110.75 22.457-150.72 62.43-39.973 39.977-62.43 94.191-62.43 150.72s22.457 110.75 62.43 150.72c39.977 39.973 94.191 62.43 150.72 62.43s110.75-22.457 150.72-62.43 62.43-94.188 62.43-150.72c-0.066407-56.512-22.543-110.69-62.504-150.65-39.957-39.957-94.137-62.438-150.64-62.504z"></path>
 </g>
<path xmlns="http://www.w3.org/2000/svg" d="m386.3 413.7c-3.6328-3.6328-5.6758-8.5625-5.6758-13.699v-135.64c0-6.9258 3.6953-13.32 9.6875-16.781 5.9961-3.4648 13.383-3.4648 19.379 0 5.9961 3.4609 9.6875 9.8555 9.6875 16.781v127.62l91.207 91.207h0.003907c4.7539 4.9219 6.5586 11.988 4.75 18.586-1.8125 6.6016-6.9648 11.754-13.566 13.566-6.5977 1.8086-13.664 0.003906-18.586-4.75z"></path>

      </g>
      </svg>