<?xml version="1.0" standalone="no"?>
<!DOCTYPE svg PUBLIC "-//W3C//DTD SVG 20010904//EN"
 "http://www.w3.org/TR/2001/REC-SVG-20010904/DTD/svg10.dtd">
<svg version="1.0" xmlns="http://www.w3.org/2000/svg"
 width="1280.000000pt" height="1280.000000pt" viewBox="0 0 1280.000000 1280.000000"
 preserveAspectRatio="xMidYMid meet">
<metadata>
Created by potrace 1.15, written by Peter Selinger 2001-2017
</metadata>
<g transform="translate(0.000000,1280.000000) scale(0.100000,-0.100000)"
fill="#000000" stroke="none">
<path d="M6020 12080 c0 -226 -3 -340 -10 -340 -44 0 -329 -35 -444 -55 -903
-153 -1567 -599 -1905 -1282 -193 -389 -271 -806 -249 -1339 34 -882 384
-1542 1053 -1989 303 -202 642 -353 1266 -563 l289 -97 0 -1839 0 -1839 -77 7
c-182 17 -454 72 -633 130 -521 167 -843 485 -986 975 -63 215 -92 428 -101
739 l-6 212 -46 0 c-74 0 -714 19 -850 25 l-124 5 6 -272 c6 -276 20 -438 57
-648 229 -1291 1108 -2030 2601 -2187 l159 -16 0 -664 0 -663 380 0 380 0 2
657 3 658 187 17 c1385 123 2265 750 2584 1843 85 293 115 518 121 920 5 283
3 325 -17 465 -78 552 -298 998 -675 1375 -322 322 -739 564 -1285 745 -181
60 -535 149 -735 185 -77 14 -150 27 -162 30 l-23 5 0 1715 0 1715 38 0 c21 0
92 -7 157 -16 640 -83 1054 -323 1258 -729 100 -201 167 -522 167 -805 l0 -58
93 -6 c50 -3 280 -8 510 -11 l417 -6 0 109 c0 603 -173 1169 -482 1574 -429
564 -1101 885 -2025 969 l-133 12 0 339 0 338 -380 0 -380 0 0 -340z m0 -2975
c0 -1030 -3 -1605 -10 -1605 -18 0 -356 122 -490 177 -692 285 -973 600 -1067
1198 -25 156 -25 551 0 685 81 439 294 729 677 924 140 71 322 134 495 171
120 26 293 52 358 54 l37 1 0 -1605z m1130 -2951 c270 -70 521 -166 727 -278
292 -160 526 -395 647 -650 42 -90 89 -235 113 -351 15 -73 18 -137 18 -345
-1 -333 -25 -517 -99 -744 -181 -551 -592 -867 -1306 -1005 -108 -21 -313 -48
-410 -53 l-55 -3 -3 1745 c-1 960 0 1750 2 1757 5 13 141 -14 366 -73z"/>
</g>
</svg>
