<svg xmlns="http://www.w3.org/2000/svg" width="24" height="24" viewBox="0 0 24 24" fill="none" stroke="currentColor" stroke-width="2" stroke-linecap="round" stroke-linejoin="round"><path d="M21.198 2.433a2.242 2.242 0 0 0-1.022.215l-8.609 3.33c-2.068.8-4.133 1.598-5.724 2.21a405.15 405.15 0 0 1-2.863 1.13c-1.192.501-1.744.782-1.744.782s-.273.136-.312.336c-.031.155.037.472.434.695.536.3 1.933.91 3.393 1.57.593.268.84.444.84.444s.226.15.534.024c.22-.09.324-.226.324-.226s2.536-1.733 4.29-2.836c.267-.168.497-.101.378.077l-3.265 4.88c-.097.147-.035.41.22.493 1.393.456 2.052.793 4.212 1.996.182.102.399.072.548-.07l3.664-12.822a.965.965 0 0 0-.295-1.098z"></path></svg>
